<mxfile host="app.diagrams.net" modified="2021-04-13T07:37:19.151Z" agent="5.0 (Windows NT 10.0; Win64; x64) AppleWebKit/537.36 (KHTML, like Gecko) Chrome/89.0.4389.114 Safari/537.36" etag="9yb8RIDLDamGK9mJpdT3" version="14.5.10" type="github">
  <diagram id="xMS9d9wwtkec2P2PHVaz" name="Page-1">
    <mxGraphModel dx="1038" dy="580" grid="1" gridSize="10" guides="1" tooltips="1" connect="1" arrows="1" fold="1" page="1" pageScale="1" pageWidth="850" pageHeight="1100" background="#FFCCFF" math="0" shadow="0">
      <root>
        <mxCell id="0" />
        <mxCell id="1" parent="0" />
        <mxCell id="7Aq2TeMq4lBU1DFnSlIl-1" value="Get all category" style="rounded=1;whiteSpace=wrap;html=1;" vertex="1" parent="1">
          <mxGeometry x="20" y="30" width="120" height="60" as="geometry" />
        </mxCell>
        <mxCell id="7Aq2TeMq4lBU1DFnSlIl-2" value="&lt;span style=&quot;color: rgb(29 , 28 , 29) ; font-family: , &amp;#34;applelogo&amp;#34; , sans-serif ; font-size: 15px ; text-align: left ; background-color: rgb(255 , 255 , 255)&quot;&gt;Get/Jobs-api/category&lt;br&gt;&lt;/span&gt;" style="text;html=1;align=center;verticalAlign=middle;resizable=0;points=[];autosize=1;strokeColor=none;" vertex="1" parent="1">
          <mxGeometry x="10" y="110" width="160" height="20" as="geometry" />
        </mxCell>
        <mxCell id="7Aq2TeMq4lBU1DFnSlIl-4" value="Dynamo&lt;br&gt;DB" style="shape=cylinder3;whiteSpace=wrap;html=1;boundedLbl=1;backgroundOutline=1;size=15;" vertex="1" parent="1">
          <mxGeometry x="300" y="180" width="60" height="80" as="geometry" />
        </mxCell>
        <mxCell id="7Aq2TeMq4lBU1DFnSlIl-5" value="" style="endArrow=classic;startArrow=classic;html=1;entryX=1;entryY=1;entryDx=0;entryDy=0;exitX=0;exitY=0;exitDx=0;exitDy=15;exitPerimeter=0;" edge="1" parent="1" source="7Aq2TeMq4lBU1DFnSlIl-4" target="7Aq2TeMq4lBU1DFnSlIl-1">
          <mxGeometry width="50" height="50" relative="1" as="geometry">
            <mxPoint x="250" y="190" as="sourcePoint" />
            <mxPoint x="170" y="60" as="targetPoint" />
          </mxGeometry>
        </mxCell>
        <mxCell id="7Aq2TeMq4lBU1DFnSlIl-6" value="API" style="text;html=1;align=center;verticalAlign=middle;resizable=0;points=[];autosize=1;strokeColor=none;" vertex="1" parent="1">
          <mxGeometry x="145" y="70" width="30" height="20" as="geometry" />
        </mxCell>
        <mxCell id="7Aq2TeMq4lBU1DFnSlIl-7" value="Get Jobs" style="rounded=1;whiteSpace=wrap;html=1;" vertex="1" parent="1">
          <mxGeometry x="280" y="30" width="120" height="60" as="geometry" />
        </mxCell>
        <mxCell id="7Aq2TeMq4lBU1DFnSlIl-8" value="" style="endArrow=classic;startArrow=classic;html=1;exitX=0.5;exitY=0;exitDx=0;exitDy=0;exitPerimeter=0;entryX=0.41;entryY=1.057;entryDx=0;entryDy=0;entryPerimeter=0;" edge="1" parent="1" source="7Aq2TeMq4lBU1DFnSlIl-4" target="7Aq2TeMq4lBU1DFnSlIl-7">
          <mxGeometry width="50" height="50" relative="1" as="geometry">
            <mxPoint x="310" y="160" as="sourcePoint" />
            <mxPoint x="360" y="110" as="targetPoint" />
          </mxGeometry>
        </mxCell>
        <mxCell id="7Aq2TeMq4lBU1DFnSlIl-9" value="" style="endArrow=classic;html=1;exitX=1;exitY=0.5;exitDx=0;exitDy=0;entryX=0;entryY=0.5;entryDx=0;entryDy=0;" edge="1" parent="1" source="7Aq2TeMq4lBU1DFnSlIl-1" target="7Aq2TeMq4lBU1DFnSlIl-7">
          <mxGeometry width="50" height="50" relative="1" as="geometry">
            <mxPoint x="170" y="80" as="sourcePoint" />
            <mxPoint x="220" y="30" as="targetPoint" />
          </mxGeometry>
        </mxCell>
        <mxCell id="7Aq2TeMq4lBU1DFnSlIl-10" value="&lt;span style=&quot;color: rgb(29 , 28 , 29) ; font-family: , &amp;#34;applelogo&amp;#34; , sans-serif ; font-size: 15px ; text-align: left ; background-color: rgb(255 , 255 , 255)&quot;&gt;POST/Jobs-api/category(categoryid)/Jobs&lt;/span&gt;" style="text;html=1;align=center;verticalAlign=middle;resizable=0;points=[];autosize=1;strokeColor=none;" vertex="1" parent="1">
          <mxGeometry x="195" y="10" width="290" height="20" as="geometry" />
        </mxCell>
        <mxCell id="7Aq2TeMq4lBU1DFnSlIl-11" value="Templates of resumes" style="shape=parallelogram;perimeter=parallelogramPerimeter;whiteSpace=wrap;html=1;fixedSize=1;" vertex="1" parent="1">
          <mxGeometry x="510" y="120" width="150" height="110" as="geometry" />
        </mxCell>
        <mxCell id="7Aq2TeMq4lBU1DFnSlIl-12" value="" style="endArrow=classic;html=1;exitX=1;exitY=0.5;exitDx=0;exitDy=0;" edge="1" parent="1" source="7Aq2TeMq4lBU1DFnSlIl-7" target="7Aq2TeMq4lBU1DFnSlIl-11">
          <mxGeometry width="50" height="50" relative="1" as="geometry">
            <mxPoint x="400" y="310" as="sourcePoint" />
            <mxPoint x="450" y="260" as="targetPoint" />
          </mxGeometry>
        </mxCell>
        <mxCell id="7Aq2TeMq4lBU1DFnSlIl-13" value="" style="shape=image;html=1;verticalAlign=top;verticalLabelPosition=bottom;labelBackgroundColor=#ffffff;imageAspect=0;aspect=fixed;image=https://cdn3.iconfinder.com/data/icons/brands-applications/512/Doc_B-128.png" vertex="1" parent="1">
          <mxGeometry x="533" y="190" width="34" height="34" as="geometry" />
        </mxCell>
        <mxCell id="7Aq2TeMq4lBU1DFnSlIl-14" value="" style="shape=image;html=1;verticalAlign=top;verticalLabelPosition=bottom;labelBackgroundColor=#ffffff;imageAspect=0;aspect=fixed;image=https://cdn4.iconfinder.com/data/icons/logos-and-brands/512/27_Pdf_File_Type_Adobe_logo_logos-128.png" vertex="1" parent="1">
          <mxGeometry x="590" y="190" width="30" height="30" as="geometry" />
        </mxCell>
        <mxCell id="7Aq2TeMq4lBU1DFnSlIl-15" value="Resume" style="rounded=1;whiteSpace=wrap;html=1;" vertex="1" parent="1">
          <mxGeometry x="500" y="490" width="120" height="60" as="geometry" />
        </mxCell>
        <mxCell id="7Aq2TeMq4lBU1DFnSlIl-16" value="User selection" style="rhombus;whiteSpace=wrap;html=1;" vertex="1" parent="1">
          <mxGeometry x="510" y="320" width="100" height="80" as="geometry" />
        </mxCell>
        <mxCell id="7Aq2TeMq4lBU1DFnSlIl-17" value="Json" style="text;html=1;align=center;verticalAlign=middle;resizable=0;points=[];autosize=1;strokeColor=none;" vertex="1" parent="1">
          <mxGeometry x="430" y="70" width="40" height="20" as="geometry" />
        </mxCell>
        <mxCell id="7Aq2TeMq4lBU1DFnSlIl-19" value="" style="endArrow=classic;html=1;entryX=0.5;entryY=0;entryDx=0;entryDy=0;" edge="1" parent="1" target="7Aq2TeMq4lBU1DFnSlIl-16">
          <mxGeometry width="50" height="50" relative="1" as="geometry">
            <mxPoint x="560" y="233" as="sourcePoint" />
            <mxPoint x="450" y="260" as="targetPoint" />
          </mxGeometry>
        </mxCell>
        <mxCell id="7Aq2TeMq4lBU1DFnSlIl-20" value="" style="endArrow=classic;html=1;exitX=0;exitY=0.5;exitDx=0;exitDy=0;entryX=0;entryY=0;entryDx=0;entryDy=0;" edge="1" parent="1" source="7Aq2TeMq4lBU1DFnSlIl-16" target="7Aq2TeMq4lBU1DFnSlIl-15">
          <mxGeometry width="50" height="50" relative="1" as="geometry">
            <mxPoint x="400" y="310" as="sourcePoint" />
            <mxPoint x="450" y="260" as="targetPoint" />
          </mxGeometry>
        </mxCell>
        <mxCell id="7Aq2TeMq4lBU1DFnSlIl-22" value="" style="endArrow=classic;html=1;exitX=1;exitY=0.5;exitDx=0;exitDy=0;" edge="1" parent="1" source="7Aq2TeMq4lBU1DFnSlIl-16">
          <mxGeometry width="50" height="50" relative="1" as="geometry">
            <mxPoint x="400" y="310" as="sourcePoint" />
            <mxPoint x="620" y="488" as="targetPoint" />
          </mxGeometry>
        </mxCell>
        <mxCell id="7Aq2TeMq4lBU1DFnSlIl-23" value="View" style="text;html=1;align=center;verticalAlign=middle;resizable=0;points=[];autosize=1;strokeColor=none;rotation=90;" vertex="1" parent="1">
          <mxGeometry x="470" y="410" width="40" height="20" as="geometry" />
        </mxCell>
        <mxCell id="7Aq2TeMq4lBU1DFnSlIl-24" value="download" style="text;html=1;align=center;verticalAlign=middle;resizable=0;points=[];autosize=1;strokeColor=none;rotation=90;" vertex="1" parent="1">
          <mxGeometry x="590" y="410" width="70" height="20" as="geometry" />
        </mxCell>
        <mxCell id="7Aq2TeMq4lBU1DFnSlIl-25" value="&lt;span style=&quot;color: rgb(29 , 28 , 29) ; font-family: , &amp;#34;applelogo&amp;#34; , sans-serif ; font-size: 15px ; text-align: left ; background-color: rgb(255 , 255 , 255)&quot;&gt;POST/Jobs-api/job(jobid)&lt;/span&gt;" style="text;html=1;align=center;verticalAlign=middle;resizable=0;points=[];autosize=1;strokeColor=none;" vertex="1" parent="1">
          <mxGeometry x="240" y="280" width="180" height="20" as="geometry" />
        </mxCell>
      </root>
    </mxGraphModel>
  </diagram>
</mxfile>
